PathFileType	4	(X/Y/Z)	 s01c0302.trc
DataRate	CameraRate	NumFrames	NumMarkers	Units	OrigDataRate	OrigDataStartFrame	OrigNumFrames
200	200	4	48	mm	200	1	2000
Frame#	Time	racr			lacr			c7			jug			rlel			rdr			llel			ldr			s2			lic			ric			lasi			rasi			rpsi			lpsi			rgt			lgt			rth1			rth2			rth3			rth4			rlfc			rsh1			rsh2			rsh3			rsh4			rlmal			rmmal			rcal			rtoe			rmt5			lth1			lth2			lth4			lth3			llfc			lsh1			lsh2			lsh3			lsh4			llmal			lmmal			lcal			ltoe			lmt5			SBIKE			LBIKE			RBIKE			
		X1	Y1	Z1	X2	Y2	Z2	X3	Y3	Z3	X4	Y4	Z4	X5	Y5	Z5	X6	Y6	Z6	X7	Y7	Z7	X8	Y8	Z8	X9	Y9	Z9	X10	Y10	Z10	X11	Y11	Z11	X12	Y12	Z12	X13	Y13	Z13	X14	Y14	Z14	X15	Y15	Z15	X16	Y16	Z16	X17	Y17	Z17	X18	Y18	Z18	X19	Y19	Z19	X20	Y20	Z20	X21	Y21	Z21	X22	Y22	Z22	X23	Y23	Z23	X24	Y24	Z24	X25	Y25	Z25	X26	Y26	Z26	X27	Y27	Z27	X28	Y28	Z28	X29	Y29	Z29	X30	Y30	Z30	X31	Y31	Z31	X32	Y32	Z32	X33	Y33	Z33	X34	Y34	Z34	X35	Y35	Z35	X36	Y36	Z36	X37	Y37	Z37	X38	Y38	Z38	X39	Y39	Z39	X40	Y40	Z40	X41	Y41	Z41	X42	Y42	Z42	X43	Y43	Z43	X44	Y44	Z44	X45	Y45	Z45	X46	Y46	Z46	X47	Y47	Z47	X48	Y48	Z48	
1	0.0050	494.790151	1337.575618	-110.821842	494.387788	1333.657409	-426.365776	452.001913	1391.440263	-260.014283	467.065741	1233.230274	-266.781699	569.094347	1068.974316	-20.777893	732.858330	862.955819	-56.326118	571.357634	1063.801482	-505.144252	730.131245	866.330883	-435.415629	-61.225078	1150.779911	-242.961874	140.464911	1167.167996	-443.726043	103.511670	1126.878965	-93.965683	102.786557	1109.340891	-398.464499	117.061145	1076.963162	-117.836779	-27.413120	1178.516667	-192.374544	-32.471649	1190.288294	-295.921274	24.770301	1010.787750	-67.918789	45.442440	1049.300284	-460.128631	89.724456	886.830535	-46.882753	136.056263	818.654320	-57.548857	180.941473	741.939982	-71.685088	182.313513	848.402328	-69.476705	212.153971	638.675064	-94.965833	143.279201	540.407413	-62.904921	110.874549	462.068620	-66.110273	68.286827	384.188841	-79.374295	154.449707	443.225588	-103.517152	10.521069	266.856890	-100.251123	59.225635	285.015459	-176.734039	-36.671152	234.276015	-156.089177	232.739693	209.173250	-135.262194	126.056070	181.603285	-68.913973	147.583454	979.125660	-458.954438	236.604915	974.487967	-461.848756	240.903300	1028.592493	-452.458785	320.509402	961.432045	-446.066508	424.472499	900.420045	-422.721664	341.264764	823.916113	-445.245273	301.585125	747.294668	-437.127122	261.075444	672.968712	-420.936188	352.988183	724.509743	-410.284011	205.399745	557.908565	-401.887190	233.626421	566.200343	-319.485191	152.361751	518.316446	-362.455985	429.176943	503.631481	-371.576257	324.481177	480.912700	-436.379923	-224.741704	892.814566	-252.397071	-12.529579	84.755432	-456.056441	-21.695742	81.029363	-55.794402	
2	0.0100	494.870589	1337.612612	-110.909379	494.419848	1333.685474	-426.364071	452.004750	1391.463875	-260.090080	467.120886	1233.206424	-266.802146	569.237586	1069.056904	-20.919761	732.847234	862.945907	-56.335399	571.555071	1063.901455	-505.102701	730.111736	866.278604	-435.467570	-61.208939	1150.767712	-242.963606	140.475013	1167.248549	-443.821181	103.513036	1126.860546	-93.967208	102.782792	1109.345376	-398.479459	117.085799	1076.894280	-117.854499	-27.698720	1178.783781	-192.081008	-32.453257	1190.291116	-295.932084	24.811675	1010.783163	-67.956204	45.427080	1049.308329	-460.143551	89.766294	886.839677	-46.894788	136.077399	818.679266	-57.568933	180.996057	741.950903	-71.712136	182.364664	848.404082	-69.504424	212.198765	638.697042	-95.000156	143.314899	540.439716	-62.926479	110.934813	462.089764	-66.124749	68.337877	384.198252	-79.362450	154.498602	443.233806	-103.516815	10.569338	266.868803	-100.249136	59.202401	284.997419	-176.777124	-36.600199	234.294774	-156.089374	232.758233	209.129620	-135.260425	126.083801	181.613235	-68.918606	147.592120	979.133261	-458.989741	236.596947	974.672814	-462.177655	240.928177	1028.625364	-452.500798	320.562006	961.463254	-446.068063	424.481313	900.441904	-422.761716	341.274182	823.937406	-445.274745	301.581863	747.327382	-437.147572	261.065089	672.994241	-420.939458	352.984826	724.534818	-410.282684	205.390428	557.936087	-401.894258	233.594442	566.224444	-319.497891	152.341688	518.349558	-362.446277	429.148700	503.646484	-371.586894	324.466666	480.934393	-436.369378	-224.736478	892.810000	-252.401319	-12.526024	84.757135	-456.058403	-21.703795	81.042512	-55.821036	
3	0.0150	494.931066	1337.699291	-111.008113	494.421241	1333.763748	-426.394883	451.997004	1391.204798	-260.207829	467.160118	1233.182208	-266.846919	569.371083	1069.139975	-21.039817	732.847283	862.948806	-56.360249	571.755941	1063.981614	-505.021420	730.102536	866.238563	-435.509680	-61.207371	1150.775487	-242.946989	140.413020	1167.165945	-443.713688	103.522794	1126.842311	-93.962264	102.766639	1109.323225	-398.489775	117.105954	1076.890411	-117.857065	-27.704984	1178.776582	-192.072260	-32.462162	1190.299274	-295.936394	24.832411	1010.795717	-67.952534	45.418831	1049.310580	-460.142418	89.799634	886.843654	-46.923384	136.108146	818.678160	-57.599388	181.039875	741.946080	-71.736846	182.389555	848.405279	-69.532571	212.261629	638.698412	-95.014523	143.399700	540.445881	-62.949651	110.990968	462.079330	-66.138259	68.423402	384.213096	-79.368363	154.556357	443.241209	-103.532526	10.607097	266.880150	-100.249747	59.140144	284.666329	-176.852078	-36.578597	234.325304	-156.083181	232.811223	209.111522	-135.264911	126.121209	181.599640	-68.914445	147.574734	979.150977	-458.998994	236.592805	974.691315	-462.201471	240.900959	1028.629785	-452.523035	320.607295	961.524138	-446.076044	424.477379	900.462515	-422.789379	341.253408	823.957246	-445.305341	301.647036	747.405757	-437.153506	261.045510	673.040075	-420.969856	352.958422	724.557490	-410.301302	205.387726	557.970757	-401.904472	233.622263	566.304792	-319.427787	152.297837	518.440870	-362.446518	429.135005	503.650170	-371.580978	324.450726	480.958374	-436.365072	-224.737355	892.813551	-252.392269	-12.486416	84.792551	-456.078756	-21.700162	81.039327	-55.819011	
4	0.0200	495.018187	1337.775079	-111.100683	493.935503	1333.267636	-426.320695	451.978673	1390.663033	-260.367530	467.235270	1233.159798	-266.890454	569.444919	1069.314563	-21.128333	732.842126	862.952733	-56.368284	572.145950	1064.102475	-504.665940	734.137391	868.062079	-440.411898	-61.201404	1150.779744	-242.965524	140.359204	1167.096629	-443.639428	103.619108	1126.988290	-93.876313	102.758551	1109.321510	-398.502760	117.380230	1077.029619	-117.849460	-28.837103	1179.776583	-190.928541	-33.178242	1190.529582	-295.563508	24.837155	1010.670755	-67.916125	45.475904	1049.240532	-460.174394	89.947137	886.944624	-46.613320	135.920974	819.137425	-57.341315	181.085590	741.943079	-71.749100	182.426444	848.514942	-69.445065	212.309831	638.703688	-95.043082	143.448814	540.445496	-62.964081	111.043287	462.060365	-66.162877	68.460728	384.211553	-79.361785	154.601395	443.238847	-103.547361	10.304836	267.058111	-100.538751	59.061751	284.610070	-176.907343	-36.540647	234.333836	-156.094659	232.832591	209.071833	-135.262726	126.148229	181.592965	-68.910504	147.689355	979.113910	-459.051946	236.575849	974.697016	-462.224278	240.971559	1028.640684	-452.558259	320.641823	961.580710	-446.090767	424.547401	900.630634	-422.702783	342.318859	824.127613	-445.993982	303.067983	746.654901	-437.624447	261.259821	673.140456	-420.961925	353.046040	724.010935	-411.499919	205.766418	558.038757	-401.969226	233.632992	566.358909	-319.401954	152.251261	518.527689	-362.449111	429.121243	503.655411	-371.590734	324.437232	480.997079	-436.361181	-224.637124	892.755465	-252.614647	-12.548679	84.883179	-456.073679	-21.697934	81.041515	-55.814794	
